<svg width="30" height="30" viewBox="0 0 30 30" fill="none" xmlns="http://www.w3.org/2000/svg">
<path d="M15.7678 30.0001C11.5443 30.0001 7.58149 28.3631 4.60917 25.3909C1.63685 22.4187 3.69279e-07 18.4556 3.69279e-07 14.2321C-0.000630123 11.3185 0.806107 8.46174 2.33067 5.97887C3.85523 3.496 6.03798 1.48415 8.63664 0.166624C8.90399 0.0303374 9.20557 -0.0241838 9.50372 0.00986665C9.80186 0.0439171 10.0834 0.165031 10.3131 0.358089C10.5429 0.551148 10.7106 0.807598 10.7955 1.09543C10.8804 1.38326 10.8786 1.68971 10.7904 1.97654C10.0489 4.37173 9.97602 6.92403 10.5797 9.35763C11.1833 11.7912 12.4406 14.0136 14.2155 15.7846C15.4893 17.0678 17.0049 18.0856 18.6747 18.7792C20.3445 19.4727 22.1353 19.8281 23.9434 19.8248C25.3265 19.8259 26.702 19.6184 28.0233 19.2094C28.3101 19.1212 28.6166 19.1194 28.9045 19.2042C29.1924 19.2891 29.4488 19.4569 29.6419 19.6867C29.835 19.9164 29.9561 20.198 29.9901 20.4962C30.0242 20.7944 29.9696 21.096 29.8333 21.3633C28.5157 23.962 26.5039 26.1447 24.021 27.6693C21.5382 29.1939 18.6814 30.0007 15.7678 30.0001ZM8.58208 2.48574C6.56695 3.71182 4.90234 5.4372 3.74927 7.49497C2.59621 9.55275 1.9937 11.8733 2.00005 14.2321C2.00005 21.8237 8.17619 28 15.7678 28C18.1266 28.0064 20.4472 27.4039 22.505 26.2508C24.5627 25.0977 26.2881 23.4331 27.5142 21.418C26.3433 21.689 25.1453 21.8256 23.9435 21.8251C21.8727 21.829 19.8216 21.4222 17.9091 20.6281C15.9966 19.834 14.2605 18.6685 12.8015 17.199C10.906 15.3071 9.52396 12.9634 8.7857 10.3892C8.04744 7.81491 7.97736 5.09498 8.58208 2.48612V2.48574Z" fill="#F7F7F7"/>
</svg>
