<svg width="30" height="30" viewBox="0 0 30 30" fill="none" xmlns="http://www.w3.org/2000/svg">
<path d="M13.4261 22.0717L14.3302 20.1503C13.4371 19.2598 12.5914 18.323 11.7966 17.3437C12.4603 16.4487 13.0786 15.5302 13.6516 14.5884C15.2419 11.9775 16.4734 9.16436 17.313 6.22483H20.5591V4.21907H11.5331V0.708984H9.52737V4.21907H0V6.22483H3.74639C4.72617 9.65564 6.23727 12.9118 8.22475 15.875C8.65167 15.3481 9.08385 14.7824 9.51383 14.1807C7.93077 11.7091 6.69379 9.03224 5.8374 6.22483H15.2229C13.3596 12.338 9.92357 16.8308 7.28512 19.5831C4.21423 22.7865 1.52156 24.4007 1.49473 24.4167L1.59634 24.5883L2.00576 25.2796L2.51598 26.1429C2.63338 26.0736 5.42897 24.4049 8.68301 21.0232C9.32569 20.3554 9.94079 19.6673 10.5283 18.9591C11.4356 20.0497 12.403 21.0889 13.4261 22.0717Z" fill="#F7F7F7"/>
<path d="M19.9149 12.2422L19.5562 13.0267L12.121 29.2912H14.3264L16.6187 24.2768H25.5023L27.7946 29.2912H30L22.2062 12.2422H19.9149ZM19.5562 22.271H17.5357L19.5562 17.8511L21.0605 14.5603L24.5854 22.271H19.5562Z" fill="#F7F7F7"/>
</svg>
