<svg width="60" height="61" viewBox="0 0 60 61" fill="none" xmlns="http://www.w3.org/2000/svg">
<path d="M50.0003 0.366699H9.99969C4.48139 0.38545 0.0187506 4.84996 0 10.3664V50.367C0 55.8647 4.50202 60.3667 9.99969 60.3667H50.0003C55.498 60.3667 60 55.8647 60 50.367V10.3664C60 4.86872 55.498 0.366699 50.0003 0.366699ZM44.5308 42.5068C44.032 43.7087 43.2407 44.7718 42.2263 45.5931C41.1707 46.4425 39.8431 47.1457 38.2024 47.6444C36.5711 48.1526 34.6286 48.4057 32.3729 48.4057H16.298V13.404H33.301C36.4455 13.404 38.9656 14.1071 40.85 15.5528C42.7551 16.9985 43.6926 19.166 43.6926 22.0761C43.6926 23.8443 43.2632 25.3481 42.4026 26.5969C41.5419 27.8457 40.3025 28.8132 38.7012 29.4882V29.6064C40.8407 30.0564 42.4907 31.0708 43.5745 32.644C44.6583 34.2171 45.2245 36.2084 45.2245 38.6104C45.2245 39.9586 44.9602 41.2373 44.4726 42.428L44.5308 42.4955V42.5068ZM37.5874 33.8834C36.5711 32.9458 35.1255 32.4865 33.271 32.4865H22.4595V43.4049H33.2992C35.1442 43.4049 36.5993 42.9268 37.6249 41.9592C38.6506 40.9917 39.1681 39.6154 39.1681 37.8566C39.1493 36.1278 38.6506 34.7909 37.6249 33.8815H37.5762L37.5874 33.8834ZM36.093 26.8219C37.0793 25.9819 37.5668 24.78 37.5668 23.2087C37.5668 21.4499 37.128 20.2011 36.2393 19.4885C35.3599 18.776 34.0904 18.4048 32.4216 18.4048H22.4219V28.0632H32.4216C33.8767 28.0632 35.1273 27.6338 36.0836 26.8238L36.093 26.8219Z" fill="#626072"/>
</svg>
