<svg width="61" height="82" viewBox="0 0 61 82" fill="none" xmlns="http://www.w3.org/2000/svg">
<path d="M19.6191 62.9047C19.6191 62.9047 16.5078 64.7172 21.8281 65.3247C28.2745 66.0669 31.5714 65.9627 38.6686 64.6104C38.6686 64.6104 40.5319 65.7899 43.1425 66.8092C27.2171 73.6293 7.10506 66.3999 19.6166 62.9047H19.6191ZM17.6695 54.0079C17.6695 54.0079 14.1743 56.588 19.4971 57.1294C26.3985 57.8437 31.8231 57.9123 41.236 56.0999C41.236 56.0999 42.5349 57.4116 44.5888 58.136C25.3386 63.7614 3.88694 58.5732 17.6695 54.0079ZM34.0727 38.9035C37.9899 43.4181 33.0382 47.4827 33.0382 47.4827C33.0382 47.4827 42.995 42.3301 38.4271 35.8989C34.1541 29.8872 30.8699 26.9106 48.6077 16.6207C48.6077 16.6207 20.7656 23.573 34.0702 38.9061L34.0727 38.9035ZM55.1253 69.4986C55.1253 69.4986 57.4308 71.3898 52.596 72.8616C43.4068 75.64 14.3471 76.4737 6.2713 72.9658C3.37346 71.7076 8.81326 69.9485 10.5215 69.5901C12.3085 69.1936 13.3278 69.2749 13.3278 69.2749C10.0969 66.9973 -7.53664 73.736 4.36737 75.6679C36.8435 80.9374 63.5569 73.2988 55.1253 69.4986ZM21.1138 44.7806C21.1138 44.7806 6.32722 48.2885 15.8697 49.5595C19.9089 50.1009 27.9466 49.984 35.4403 49.3485C41.5537 48.8299 47.7002 47.7318 47.7002 47.7318C47.7002 47.7318 45.5421 48.6571 43.9788 49.7323C28.9634 53.6774 -0.040394 51.837 8.31249 47.8004C15.369 44.3967 21.1138 44.7806 21.1138 44.7806ZM47.6316 59.6078C62.8833 51.6642 55.8268 44.051 50.9158 45.0856C49.7083 45.322 49.1669 45.5508 49.1669 45.5508C49.1669 45.5508 49.6041 44.8467 50.4658 44.5442C60.2092 41.1151 67.7029 54.6434 47.3265 60.0069C47.3265 59.9942 47.568 59.7934 47.6316 59.6078ZM38.4297 0.00390625C38.4297 0.00390625 46.8791 8.45085 30.4072 21.4504C17.2094 31.8826 27.4001 37.8283 30.4072 44.6204C22.7025 37.6682 17.0492 31.5547 20.8367 25.8607C26.4087 17.4799 41.8333 13.428 38.4297 0.00390625ZM22.6085 81.095C37.2527 82.0203 59.744 80.5663 60.2905 73.642C60.2905 73.642 59.2559 76.2628 48.173 78.3523C35.6767 80.7086 20.2521 80.429 11.1036 78.9216C11.1036 78.9216 12.9846 80.4697 22.6059 81.095H22.6085Z" fill="#626072"/>
</svg>
