<svg width="61" height="67" viewBox="0 0 61 67" fill="none" xmlns="http://www.w3.org/2000/svg">
<path d="M59.0758 32.9975C59.0725 31.0758 58.433 29.2093 57.2574 27.6892C56.0817 26.1692 54.4359 25.081 52.5768 24.5946L60.9183 0H19.5821L27.946 24.6727C26.1404 25.1991 24.554 26.2964 23.4246 27.8003C22.2952 29.3041 21.6836 31.1335 21.6815 33.0142C21.6815 35.926 23.1331 38.5055 25.3469 40.0939C24.4564 41.3494 23.4426 42.5128 22.3208 43.5667C20.2571 45.5322 17.8422 47.0919 15.202 48.1646C12.8738 46.5929 11.866 43.8208 12.776 41.3362C14.7566 40.721 16.4516 39.4172 17.5542 37.6606C18.6567 35.904 19.0941 33.8108 18.7871 31.7597C18.4801 29.7087 17.4491 27.8352 15.8805 26.4785C14.312 25.1217 12.3095 24.3712 10.2356 24.3629C7.93169 24.3658 5.72295 25.2824 4.09382 26.9115C2.46468 28.5407 1.54813 30.7494 1.54518 33.0533C1.54518 35.4207 2.51388 37.5926 4.06605 39.1447C3.93205 39.4155 3.79526 39.6891 3.65847 39.9795C2.36034 42.6567 0.886343 45.6828 0.322426 49.0775C-0.802615 55.8668 1.03988 61.3162 5.48422 64.401C7.8896 66.0974 10.7622 67.0056 13.7057 67C18.806 67 23.9846 64.44 28.99 61.9555C32.5606 60.1911 36.2456 58.3486 39.872 57.4553C41.212 57.1259 42.6078 56.9332 44.0818 56.7183C47.0689 56.2912 50.1537 55.8473 52.9258 54.2337C54.5089 53.3265 55.8744 52.0841 56.9267 50.5935C57.9789 49.1028 58.6924 47.4001 59.0172 45.6047C59.503 42.8297 59.0172 40.0381 57.7777 37.5926C58.6096 36.2526 59.0758 34.6865 59.0758 32.9975ZM55.2931 32.9975C55.2931 35.6915 53.1017 37.8829 50.4077 37.8829C49.3932 37.8801 48.4047 37.562 47.5789 36.9728C46.7531 36.3835 46.1308 35.5522 45.7981 34.5938C45.4655 33.6354 45.4389 32.5973 45.7221 31.6232C46.0053 30.649 46.5842 29.7869 47.3788 29.1562L47.3983 29.1366C47.5546 29.0194 47.7277 28.9021 47.9008 28.7877C47.9008 28.7877 47.9231 28.7877 47.9231 28.7681C48.0013 28.729 48.0767 28.6704 48.1548 28.6285C48.1744 28.6285 48.1939 28.6118 48.2135 28.6118C48.2916 28.5727 48.3893 28.5336 48.4843 28.4945C48.582 28.4555 48.6797 28.4192 48.7578 28.3801C48.7774 28.3801 48.7941 28.3605 48.8137 28.3605C48.8918 28.341 48.97 28.3019 49.0482 28.2824C49.0677 28.2824 49.104 28.2628 49.1263 28.2628C49.2213 28.2433 49.2994 28.2237 49.3971 28.207H49.4167L49.707 28.1456C49.7266 28.1456 49.7628 28.1456 49.7852 28.126C49.8633 28.126 49.9387 28.1065 50.0169 28.1065H50.1146C50.2123 28.1065 50.31 28.087 50.4245 28.087H50.6757C50.7539 28.087 50.8153 28.087 50.8907 28.1065H50.9298C51.0833 28.126 51.2396 28.1456 51.396 28.1847C52.4973 28.4206 53.4846 29.0266 54.1936 29.9017C54.9027 30.7769 55.2907 31.8712 55.2931 32.9975ZM24.9952 3.88042H55.5081L48.5038 24.5387C48.2135 24.5946 47.9231 24.6923 47.6328 24.79L40.2628 9.75687L32.8705 24.6923C32.5801 24.5974 32.2675 24.5387 31.9576 24.4801L24.9952 3.88042ZM38.8642 31.3085C38.5073 29.5179 37.5903 27.8872 36.2456 26.652L40.26 18.545L44.3135 26.8279C43.1131 28.0283 42.2393 29.5637 41.8903 31.3085H38.8642ZM29.1464 28.2433C29.2413 28.2237 29.3195 28.2042 29.4172 28.1875H29.473C29.554 28.1651 29.6293 28.1651 29.7075 28.1456H29.7857C29.8638 28.1456 29.9225 28.126 29.9978 28.126H30.7544C30.8325 28.126 30.8912 28.1456 30.9498 28.1456C30.9889 28.1456 31.0056 28.1456 31.0475 28.1651C31.1229 28.1847 31.1815 28.1847 31.2597 28.2042C31.2792 28.2042 31.2988 28.2042 31.3378 28.2237L31.6086 28.2796H31.6282C31.7063 28.3019 31.7845 28.3215 31.8599 28.3605C31.8794 28.3605 31.899 28.3801 31.938 28.3801C31.9967 28.3996 32.0748 28.4192 32.1335 28.4555C32.153 28.4555 32.1725 28.475 32.1893 28.475C32.2675 28.5141 32.3456 28.5336 32.4238 28.5727H32.4433C32.533 28.6066 32.6175 28.6526 32.6946 28.7095H32.7141C32.7923 28.7486 32.8705 28.8044 32.9486 28.8435C32.9682 28.8435 32.9682 28.863 32.9849 28.863C33.0631 28.9021 33.1245 28.9607 33.1999 28.9998L33.2194 29.0194C33.4511 29.1925 33.6661 29.3879 33.8783 29.5805L33.8978 29.6C34.7623 30.5106 35.2422 31.7196 35.2378 32.9752C35.1949 34.243 34.6612 35.4446 33.7491 36.3263C32.8371 37.2081 31.6182 37.7009 30.3496 37.7009C29.081 37.7009 27.8621 37.2081 26.95 36.3263C26.038 35.4446 25.5042 34.243 25.4614 32.9752C25.4583 31.888 25.8196 30.8312 26.4876 29.9735C27.1555 29.1158 28.0916 28.5066 29.1464 28.2433ZM10.057 28.1065C12.7537 28.1065 14.9452 30.3008 14.9452 32.9947C14.9452 35.6887 12.7537 37.8829 10.0598 37.8829C7.3658 37.8829 5.16876 35.6915 5.16876 32.9975C5.16876 30.3035 7.36301 28.1065 10.057 28.1065ZM55.1787 44.9263C54.958 46.1673 54.4664 47.3444 53.7387 48.3737C53.011 49.403 52.0653 50.259 50.9688 50.8809C48.8528 52.1037 46.2537 52.4917 43.5179 52.8797C41.9796 53.0768 40.4517 53.3479 38.9395 53.6921C34.9056 54.6832 31.028 56.6234 27.2648 58.4854C22.452 60.8695 17.9127 63.1196 13.7057 63.1196C11.5483 63.133 9.44256 62.4604 7.69243 61.1989C3.42397 58.2509 3.63613 52.7234 4.14143 49.6972C4.60763 46.8637 5.90576 44.2088 7.14805 41.6656C7.22622 41.5121 7.28484 41.3753 7.36301 41.219C7.78734 41.3753 8.23401 41.4925 8.70022 41.5707C7.96322 45.6828 10.057 49.929 14.1328 52.0255L14.8698 52.4135L15.6626 52.1232C19.0573 50.92 22.2007 48.9602 24.9756 46.3417C26.508 44.9128 27.8624 43.3044 29.0096 41.5512C29.4563 41.6265 29.9029 41.6461 30.3496 41.6461C32.2699 41.6416 34.1349 41.0021 35.6538 39.827C37.1727 38.652 38.2602 37.0075 38.7469 35.1499H42.0048C42.4883 37.0103 43.5758 38.6577 45.0966 39.8334C46.6174 41.0091 48.4854 41.6467 50.4077 41.6461C52.0157 41.6461 53.5065 41.1994 54.7906 40.4457C55.2931 41.8973 55.4495 43.4132 55.1787 44.9263Z" fill="#626072"/>
</svg>
