<svg width="63" height="61" viewBox="0 0 63 61" fill="none" xmlns="http://www.w3.org/2000/svg">
<path d="M3.95998 14.4352C-1.56161 22.3639 -0.871655 32.6664 3.34019 41.0823C3.44154 41.2948 3.54289 41.4877 3.64424 41.6807C3.70466 41.8132 3.77677 41.9438 3.84694 42.0666C3.87812 42.1367 3.9288 42.2186 3.96973 42.279C4.03989 42.4213 4.11201 42.5421 4.18217 42.6747L4.58757 43.3646C4.65773 43.4972 4.73959 43.618 4.82145 43.7408C4.96373 43.9844 5.13525 44.228 5.27752 44.4717C5.34769 44.573 5.41006 44.6744 5.48022 44.7757C5.7336 45.1714 6.00841 45.5573 6.29297 45.9334C6.49567 46.2082 6.69837 46.4811 6.91276 46.7559C6.98292 46.8475 7.06478 46.9489 7.1369 47.0502L7.71576 47.7499C7.78592 47.8318 7.84829 47.9234 7.9282 48.0033C8.18158 48.3074 8.45639 48.6134 8.71951 48.9077C8.71951 48.9174 8.72925 48.9174 8.72925 48.9271C9.06448 49.3442 9.42895 49.7282 9.8363 50.0751C10.0487 50.2876 10.2534 50.502 10.4756 50.7047L10.7387 50.958C11.0233 51.2328 11.3078 51.496 11.6119 51.7591C11.6216 51.7591 11.6216 51.7591 11.6314 51.7688L11.7736 51.8916C12.0368 52.1255 12.3116 52.3594 12.5864 52.5718L12.9119 52.8466C13.1243 53.0201 13.3582 53.1916 13.5823 53.3651L13.9371 53.6399C14.1807 53.8231 14.4341 53.9946 14.6777 54.1778C14.7693 54.2382 14.8609 54.3104 14.9622 54.361L15.0324 54.4215L15.7633 54.9087L16.0771 55.1114C16.4532 55.355 16.8392 55.5889 17.2134 55.8228C17.3245 55.8735 17.4258 55.9339 17.5272 55.9963C17.8117 56.158 18.106 56.3218 18.3906 56.4738C18.5426 56.5654 18.7044 56.6355 18.8681 56.7174C19.061 56.8285 19.2637 56.9298 19.4664 57.0429C19.5171 57.0526 19.5678 57.0741 19.6185 57.1033C19.7003 57.1442 19.7802 57.1852 19.8621 57.2261C20.1759 57.3781 20.5014 57.5301 20.8366 57.6724C20.897 57.7036 20.9691 57.7231 21.0393 57.764C21.4155 57.9258 21.7799 58.0895 22.1756 58.2415C22.2574 58.261 22.349 58.3117 22.4387 58.3429C22.7934 58.4754 23.1598 58.606 23.5146 58.7385L23.6374 58.7795C24.0428 58.9217 24.4287 59.0426 24.836 59.1751C24.9276 59.1946 25.029 59.2355 25.1206 59.257C25.5377 59.3895 25.9333 59.5318 26.3485 59.6117C53.015 64.4745 60.7605 43.5829 60.7605 43.5829C54.2527 52.0592 42.7008 54.2928 31.7589 51.8059C31.3536 51.7143 30.9579 51.5817 30.5408 51.4609C30.0536 51.3186 29.5566 51.1568 29.0693 50.9931L28.9075 50.9327C28.5625 50.8099 28.2176 50.6793 27.8726 50.5468C27.781 50.5059 27.6796 50.4766 27.588 50.4357C27.2021 50.2837 26.8377 50.1316 26.4615 49.9679C26.3796 49.9367 26.3192 49.8978 26.2374 49.8666C25.9236 49.7243 25.6078 49.582 25.294 49.43C25.2024 49.3891 25.1108 49.3384 25.0192 49.2877C24.7756 49.1766 24.532 49.0441 24.2883 48.9213C24.1266 48.8394 23.9628 48.7595 23.8108 48.6777C23.5165 48.5159 23.2222 48.3522 22.9279 48.1904C22.8363 48.13 22.735 48.0676 22.6336 48.0169C22.2477 47.7831 21.8715 47.5492 21.4973 47.3172C21.396 47.2568 21.2946 47.1847 21.1933 47.1145C20.9185 46.9411 20.6456 46.7598 20.3805 46.5766C20.2889 46.5162 20.2071 46.4538 20.1174 46.3837C19.8543 46.2102 19.599 46.0289 19.3456 45.836C19.2345 45.7444 19.1215 45.6625 19.0006 45.5729C18.7765 45.3994 18.5445 45.2279 18.3204 45.0349L18.0066 44.7913C17.7123 44.5574 17.4278 44.3138 17.1432 44.0604C17.112 44.0292 17.0828 44.0097 17.0418 43.9786L16.1492 43.1658L15.8861 42.9222C15.6736 42.6981 15.4592 42.4954 15.2371 42.2829L14.9837 42.0198C14.7089 41.745 14.4457 41.4721 14.1826 41.1778L14.1417 41.1369C13.8669 40.8426 13.6038 40.5268 13.329 40.2228C13.2588 40.1409 13.1964 40.0493 13.1263 39.9694L12.5376 39.2483C12.2336 38.8624 11.9393 38.4765 11.6547 38.0808C5.58352 29.7974 3.39087 18.3664 8.24394 8.98769L3.95998 14.4352ZM21.0744 7.7559C17.075 13.5016 17.2972 21.175 20.4137 27.2462C20.9321 28.2616 21.5207 29.2459 22.1697 30.1892C22.7681 31.0429 23.4288 32.0564 24.2299 32.7483C24.5047 33.0621 24.8087 33.3681 25.1225 33.6819L25.3564 33.9157C25.6507 34.2003 25.9548 34.4849 26.2705 34.7577L26.3114 34.7986C26.6564 35.1027 27.0111 35.397 27.3873 35.6816C27.4691 35.742 27.5491 35.8141 27.6309 35.8745C27.9973 36.1493 28.3618 36.4222 28.738 36.6873L28.7789 36.7184C28.9407 36.8295 29.1141 36.9426 29.2973 37.0537C29.3675 37.1043 29.4494 37.1648 29.5312 37.2057C29.806 37.3889 30.0789 37.5507 30.3537 37.7241C30.4044 37.7436 30.4356 37.7651 30.4765 37.7846C30.7104 37.9268 30.9735 38.0594 31.2171 38.19C31.299 38.2406 31.3789 38.2816 31.4705 38.3322C31.644 38.4141 31.8155 38.5057 31.9772 38.5954L32.0688 38.6265C32.4138 38.8 32.7685 38.9618 33.1252 39.1235C33.2168 39.1547 33.287 39.184 33.3688 39.2249C33.6534 39.3477 33.9477 39.4685 34.2323 39.5796C34.3648 39.6205 34.4856 39.6712 34.6084 39.7121C34.8715 39.8135 35.1561 39.9051 35.4212 39.9967L35.7759 40.1078C36.1618 40.2306 36.5477 40.3826 36.9434 40.443C57.5309 43.8538 62.2905 28.0082 62.2905 28.0082C57.9967 34.1808 49.7036 37.1238 40.8512 34.8298C40.4555 34.7285 40.0696 34.6057 39.6837 34.4849C39.5609 34.4537 39.4498 34.4147 39.329 34.3835C39.0659 34.2822 38.7813 34.1906 38.5279 34.0989L38.1518 33.9567C37.8575 33.8339 37.5632 33.7325 37.2786 33.6019C37.187 33.561 37.1051 33.5415 37.0447 33.5006C36.6783 33.3388 36.3138 33.1751 35.9591 33.0036L35.4212 32.719L35.1171 32.567C34.8735 32.4442 34.6494 32.3136 34.4272 32.1811C34.3667 32.1499 34.3161 32.1207 34.2654 32.0895C33.9906 31.916 33.708 31.7543 33.4429 31.5711C33.3513 31.5204 33.2694 31.4697 33.1895 31.4093L32.6516 31.0643C32.2754 30.8012 31.911 30.5166 31.5348 30.2516C31.453 30.1697 31.373 30.1093 31.2912 30.0489C27.4029 26.9831 24.3371 22.8004 22.8753 18.0702C21.3434 13.1469 21.6883 7.62532 24.3273 3.1484L21.0744 7.7559ZM35.4699 2.7625C33.1155 6.22397 32.8816 10.5274 34.5051 14.3456C36.23 18.3956 39.7636 21.5842 43.8741 23.085C44.0476 23.1552 44.2093 23.2078 44.3808 23.2682L44.605 23.3384C44.8486 23.4085 45.0922 23.5001 45.3359 23.5625C56.7045 25.7552 59.7801 17.7154 60.6143 16.5382C57.9032 20.4265 53.3659 21.3601 47.7936 20.0094C47.3473 19.8866 46.9009 19.7561 46.4527 19.5923C45.9147 19.3994 45.3768 19.1753 44.8486 18.9316C43.8644 18.4444 42.9191 17.8752 42.0459 17.2165C37.0506 13.4295 33.9652 6.22202 37.224 0.345703L35.4699 2.7625Z" fill="#626072"/>
</svg>
