<svg width="27" height="61" viewBox="0 0 27 61" fill="none" xmlns="http://www.w3.org/2000/svg">
<path d="M13.1448 44.7005C13.1448 44.7005 13.1448 23.9716 13.8069 23.9736C14.3189 23.9736 14.9848 50.7125 14.9848 50.7125C14.0687 50.6004 13.1448 46.313 13.1448 44.7005ZM25.9789 24.2136C24.2101 16.179 20.3356 9.27067 14.9925 3.93889L14.9791 3.92688C14.3285 2.89454 13.7337 1.71015 13.2564 0.461729L13.2102 0.325684C13.2121 0.365697 13.2121 0.413713 13.2121 0.461729C13.2121 1.59211 12.7252 2.60244 11.9572 3.28067L11.9514 3.28467C5.07244 9.35469 0.695595 18.2997 0.55124 28.309V28.335C0.549315 28.4591 0.549316 28.6051 0.549316 28.7512C0.549316 38.6685 5.13981 47.4714 12.2325 52.9892L12.3075 53.0453L12.475 53.1713C12.7842 55.5508 13.0485 57.9356 13.268 60.3257H14.4247C14.7442 57.3427 15.1754 54.7318 15.7393 52.171L15.6508 52.6491C16.413 52.0989 17.0789 51.5288 17.7006 50.9105L17.6949 50.9165C23.086 45.7208 26.4505 38.3183 26.4505 30.1016C26.4505 29.9796 26.4505 29.8595 26.4485 29.7375V29.7555C26.4428 27.7928 26.2715 25.8742 25.9462 24.0116L25.9751 24.2096L25.9789 24.2136Z" fill="#626072"/>
</svg>
