<svg width="88" height="60" viewBox="0 0 88 60" fill="none" xmlns="http://www.w3.org/2000/svg">
<path d="M59.7623 6.24384C59.3382 6.24384 59.0554 6.30093 58.7699 6.37162V6.41513H58.8134C59.0119 6.78217 59.3382 7.06765 59.591 7.4075C59.7895 7.79086 59.9581 8.18509 60.143 8.56844L60.2001 8.51135C60.5399 8.26937 60.7112 7.88873 60.7112 7.3069C60.5698 7.13562 60.5399 6.95345 60.4148 6.79576C60.2735 6.55379 59.9608 6.42872 59.7623 6.24384ZM21.2038 54.0763H17.8488C17.7346 48.413 17.3947 43.0868 16.8727 38.0896H16.8455L11.7341 54.0763H9.17024L4.09961 38.0896H4.05611C3.68907 42.8747 3.44709 48.2145 3.34922 54.0763H0.290527C0.489002 46.9394 0.98383 40.2565 1.77773 34.0249H5.94027L10.7825 48.7528H10.8097L15.6954 34.0249H19.6595C20.5377 41.3331 21.0624 48.016 21.2174 54.0763H21.2038ZM35.7604 39.2804C34.401 46.7001 32.5876 52.097 30.3663 55.452C28.6099 58.0431 26.6986 59.3454 24.6159 59.3454C24.064 59.3454 23.3843 59.1741 22.5632 58.8343V57.0507C22.9738 57.1078 23.4414 57.1486 23.9661 57.1486C24.9422 57.1486 25.7225 56.8658 26.3179 56.3411C27.0248 55.6886 27.381 54.9545 27.381 54.147C27.381 53.5815 27.1118 52.4477 26.5463 50.7213L22.8786 39.2804H26.1793L28.8138 47.8339C29.4092 49.7887 29.6648 51.1345 29.5506 51.9121C31.0079 48.0595 32.0139 43.8399 32.5821 39.2804H35.7604ZM80.4499 54.0763H70.9068V34.0249H74.1205V51.613H80.4499V54.0763ZM68.4137 54.5603L64.7324 52.7468C65.0586 52.4776 65.3686 52.1813 65.654 51.8414C67.2255 50.0144 68.0058 47.2819 68.0058 43.6849C68.0058 37.0428 65.4012 33.7313 60.1892 33.7313C57.6389 33.7313 55.6433 34.5659 54.2132 36.2516C52.6553 38.0923 51.8614 40.8111 51.8614 44.3945C51.8614 47.9209 52.5547 50.4983 53.944 52.1541C55.2192 53.6277 57.1305 54.3781 59.6944 54.3781C60.6432 54.3781 61.5214 54.2639 62.3153 54.0246L67.1168 56.8278L68.4327 54.563L68.4137 54.5603ZM56.478 50.0551C55.6569 48.7528 55.2599 46.6566 55.2599 43.7665C55.2599 38.7122 56.7906 36.1918 59.8629 36.1918C61.4643 36.1918 62.6524 36.8008 63.4028 38.0053C64.2103 39.3212 64.6209 41.3902 64.6209 44.2504C64.6209 49.3347 63.0766 51.8985 60.0179 51.8985C58.4029 51.8985 57.2284 51.2895 56.4644 50.0851L56.478 50.0551ZM50.4721 48.5272C50.4721 50.2264 49.8494 51.6293 48.5879 52.7033C47.3427 53.7935 45.6842 54.3455 43.5744 54.3455C41.6059 54.3455 39.7218 53.7229 37.8675 52.4749L38.7321 50.7484C40.3172 51.5423 41.7473 51.9393 43.0524 51.9393C44.2568 51.9393 45.2057 51.6701 45.8854 51.1454C46.5651 50.6071 46.9756 49.8567 46.9756 48.9078C46.9756 47.7169 46.141 46.6974 44.6238 45.8491C43.2209 45.0715 40.4042 43.4701 40.4042 43.4701C38.8735 42.3527 38.1231 41.1618 38.1231 39.1934C38.1231 37.5648 38.6886 36.2625 39.8224 35.2701C40.9697 34.2506 42.427 33.7557 44.2405 33.7557C46.0947 33.7557 47.794 34.2506 49.3247 35.2429L48.5471 36.9694C47.2448 36.4175 45.9561 36.1347 44.6945 36.1347C43.6614 36.1347 42.8675 36.3903 42.3156 36.8851C41.7636 37.3799 41.4238 38.0025 41.4238 38.7829C41.4238 39.9737 42.2748 40.9933 43.8299 41.8687C45.2601 42.6463 48.1339 44.2912 48.1339 44.2912C49.7054 45.3951 50.4857 46.5859 50.4857 48.5244L50.4721 48.5272ZM84.4738 27.3012C82.5326 27.2577 81.0318 27.4562 79.7729 27.9945C79.4195 28.1359 78.8377 28.1359 78.7806 28.5899C78.9791 28.7884 79.0062 29.1011 79.1775 29.3675C79.4739 29.8488 79.9714 30.5013 80.4391 30.8411C80.9502 31.2381 81.4586 31.635 81.9834 31.9749C82.9322 32.5567 83.9953 32.8966 84.9279 33.4757C85.4526 33.8155 85.9909 34.2533 86.5129 34.6094C86.7821 34.7943 86.9507 35.1206 87.2905 35.2321V35.1614C87.1192 34.9493 87.0785 34.6366 86.9072 34.3838C86.6652 34.1418 86.4259 33.9297 86.184 33.6905C85.4771 32.7416 84.6125 31.9205 83.6636 31.2408C82.886 30.7161 81.1867 29.9793 80.8741 29.0875L80.8306 29.0304C81.3553 28.9869 81.9779 28.7884 82.4863 28.647C83.3074 28.435 84.0714 28.4758 84.9224 28.2637C85.3058 28.1658 85.6864 28.0516 86.0834 27.9238V27.7118C85.6456 27.274 85.3194 26.6786 84.8653 26.2681C83.6337 25.205 82.2743 24.1582 80.8714 23.2937C80.1074 22.7988 79.1449 22.4862 78.3374 22.0756C78.0546 21.9342 77.5598 21.8635 77.4021 21.6216C76.9644 21.0832 76.7088 20.3899 76.3962 19.751C75.7029 18.4188 75.0231 16.9479 74.4141 15.5314C73.9764 14.5825 73.7208 13.6472 73.1825 12.769C70.6893 8.64729 67.9705 6.15684 63.808 3.70717C62.9162 3.19603 61.8395 2.98396 60.7058 2.71479C60.0967 2.6876 59.5013 2.6441 58.8923 2.61691C58.4953 2.44563 58.1147 1.9943 57.7749 1.76592C56.3882 0.887735 52.8184 -0.996418 51.8125 1.49675C51.1599 3.08183 52.7749 4.62613 53.3432 5.42003C53.7537 5.98555 54.2784 6.61088 54.5748 7.2335C54.7461 7.65763 54.7869 8.09809 54.9581 8.53582C55.3415 9.59888 55.7085 10.787 56.2197 11.7794C56.4888 12.2905 56.7716 12.8261 57.1115 13.2802C57.3099 13.5493 57.6498 13.6635 57.7205 14.1013C57.3806 14.5961 57.3534 15.3193 57.1686 15.9147C56.2904 18.6608 56.6302 22.0457 57.8619 24.0712C58.2588 24.6803 59.1778 26.0125 60.4121 25.5013C61.5024 25.0636 61.2631 23.6879 61.5731 22.4698C61.6438 22.1735 61.6003 21.9886 61.7444 21.7901V21.8472C62.0978 22.5269 62.4377 23.1795 62.7503 23.8592C63.4871 25.05 64.803 26.2817 65.8933 27.1027C66.4751 27.5405 66.9265 28.2936 67.6497 28.56V28.4893H67.5926C67.4376 28.2773 67.2391 28.1767 67.0406 28.0081C66.6029 27.5704 66.119 27.0321 65.7655 26.5508C64.7595 25.1914 63.8542 23.6906 63.0603 22.1463C62.6633 21.3823 62.3235 20.5612 62.0135 19.8108C61.8721 19.5281 61.8721 19.0876 61.6302 18.9462C61.2631 19.471 60.7248 19.9223 60.4692 20.5884C60.0016 21.6216 59.9581 22.9103 59.7759 24.2425C59.6916 24.2697 59.7324 24.2425 59.6916 24.2996C58.914 24.1011 58.6449 23.3072 58.3594 22.6275C57.6226 20.9011 57.5084 18.1387 58.1337 16.1567C58.305 15.6456 59.0255 14.0469 58.7428 13.5657C58.5878 13.098 58.1066 12.8289 57.851 12.4618C57.5247 12.0078 57.1985 11.4287 56.9728 10.9175C56.391 9.5581 56.1082 8.0573 55.472 6.69789C55.1892 6.07527 54.6781 5.42275 54.2676 4.84364C53.7999 4.19112 53.2915 3.7262 52.9353 2.95949C52.8075 2.69032 52.639 2.25259 52.8374 1.96711C52.8809 1.76864 52.9788 1.69795 53.1773 1.64085C53.49 1.37169 54.3953 1.71154 54.708 1.86652C55.5998 2.21996 56.3502 2.55982 57.1006 3.07096C57.4404 3.31294 57.8075 3.76426 58.2479 3.89205H58.7591C59.5367 4.06333 60.4012 3.93555 61.1245 4.16121C62.4132 4.57176 63.5741 5.16718 64.6209 5.81698C67.7938 7.84251 70.3984 10.7027 72.1684 14.1149C72.4647 14.6668 72.5925 15.1779 72.8617 15.757C73.3565 16.9615 73.9954 18.1632 74.5038 19.3106C75.0123 20.4579 75.4962 21.6189 76.2303 22.5677C76.5973 23.0789 78.0438 23.3453 78.7072 23.6009C79.1884 23.8265 79.9388 24.025 80.3629 24.2806C81.1976 24.7917 82.0187 25.3708 82.799 25.9364C83.196 26.2055 84.4004 26.8145 84.4711 27.2958L84.4738 27.3012Z" fill="#626072"/>
</svg>
