<svg width="67" height="67" viewBox="0 0 67 67" fill="none" xmlns="http://www.w3.org/2000/svg">
<path d="M39.5369 9.67354C38.3192 7.75702 38.7087 6.49309 39.3807 5.18827C39.9822 4.02027 40.2279 1.99044 38.1024 0.392942C40.0594 -0.327344 43.1475 0.946191 43.2007 3.27909C42.0651 4.84162 38.9632 5.46251 39.5369 9.67354ZM53.5874 52.7412C52.6372 55.8209 53.0705 57.4595 48.9385 63.8537C56.2442 58.9218 59.6911 52.5541 60.8287 45.327C61.543 48.3406 61.6105 51.0742 61.3299 53.6571C67.384 45.6868 71.5321 29.6145 57.5796 13.4585C57.0184 20.5998 50.1117 26.2228 42.1465 24.0179C55.8037 22.5124 56.6791 5.14612 44.9462 1.13608C45.1754 5.96746 38.5835 4.3854 40.5221 10.8488C33.8079 7.05006 19.1385 6.26934 13.3068 12.0325C10.3004 15.0036 8.24824 17.4608 4.49094 17.6231C1.38857 17.7571 -2.70803 22.7912 2.62206 25.3658C3.13114 27.5112 4.92019 28.7328 5.95757 28.9433C5.69956 32.7638 6.51226 30.8158 7.70311 29.1507C7.30297 33.98 7.96239 32.2403 9.82883 29.7556C25.6195 26.562 34.3402 39.4395 34.4388 47.349C34.3694 45.9139 32.0754 44.2451 30.8614 44.7048C30.0412 46.4425 29.1474 47.9175 28.0444 48.6451C28.1597 47.493 28.081 46.3408 27.8716 45.1887C27.508 46.5819 26.8231 48.0287 25.7285 49.5438C23.5514 49.6653 20.5043 48.0459 21.3907 45.3615C22.641 42.7509 20.1885 42.208 18.2128 42.9554C16.7282 43.517 15.7249 45.0725 15.5877 45.5561C15.0925 47.3006 15.2554 51.1953 18.6428 53.778C17.7548 53.9415 16.8431 54.0873 16.2233 54.452C21.9854 57.9369 27.8668 56.7594 31.142 55.4444C36.5043 53.2913 40.2028 47.3318 40.7814 42.7346C42.2698 49.2009 39.6033 56.3874 33.6263 60.2417C35.3339 60.4225 38.6766 59.2656 42.0947 58.0468C39.5107 61.2987 36.422 64.3823 31.3624 66.809C41.3283 65.9742 48.6179 60.9703 53.5874 52.7412Z" fill="#626072"/>
</svg>
