<svg width="60" height="63" viewBox="0 0 60 63" fill="none" xmlns="http://www.w3.org/2000/svg">
<path d="M60 31.2256C60 26.2611 54.9333 22.2274 47.4667 19.4349C49.3333 10.4366 48.5333 3.3001 45.0667 1.12812C44 0.50755 43.2 0.197266 42.1333 0.197266C38.6667 0.197266 34.4 2.98982 30.1333 7.95436C25.6 2.98982 21.3333 0.197266 17.8667 0.197266C16.8 0.197266 15.7333 0.50755 14.9333 1.12812C11.4667 3.3001 10.6667 10.4366 12.5333 19.4349C5.06667 22.2274 0 26.2611 0 31.2256C0 36.1902 5.06667 40.2239 12.5333 43.0164C10.6667 52.0147 11.2 59.1512 14.9333 61.6335C15.7333 62.254 16.8 62.5643 17.8667 62.5643C21.3333 62.5643 25.6 59.7718 29.8667 54.8072C34.1333 59.7718 38.6667 62.5643 41.8667 62.5643C42.9333 62.5643 44 62.254 44.8 61.6335C48.2667 59.1512 49.0667 52.0147 47.2 43.0164C54.9333 40.2239 60 35.8799 60 31.2256ZM42.1333 3.61039C42.6667 3.61039 43.2 3.61039 43.4667 3.92067C45.0667 5.16181 45.8667 9.1955 45.3333 14.4703C45.0667 15.7115 45.0667 17.2629 44.8 18.504C42.4 17.8834 39.7333 17.2629 37.0667 16.9526C35.4667 14.4703 33.8667 11.988 32.2667 10.1263C36 5.78237 39.7333 3.61039 42.1333 3.61039ZM38.1333 36.8107C37.3333 38.6725 36.2667 40.2239 35.4667 42.0856C33.6 42.0856 32 42.3959 30.1333 42.3959C28.2667 42.3959 26.4 42.3959 24.8 42.0856C23.7333 40.5342 22.9333 38.6725 22.1333 36.8107C21.3333 34.949 20.5333 33.0873 19.7333 31.2256C20.5333 29.3639 21.3333 27.5022 22.1333 25.6405C22.9333 23.7788 24 21.9171 25.0667 20.3657C26.6667 20.3657 28.5333 20.0554 30.4 20.0554C32.2667 20.0554 33.8667 20.0554 35.7333 20.3657C36.8 21.9171 37.6 23.7788 38.6667 25.6405C39.4667 27.5022 40.2667 29.3639 41.0667 31.2256C40 33.0873 38.9333 34.949 38.1333 36.8107ZM42.1333 35.2593C42.6667 37.121 43.2 38.6725 43.7333 40.5342C42.1333 40.8444 40.5333 41.1547 38.9333 41.465C39.4667 40.5342 40 39.6033 40.5333 38.3622C41.0667 37.4313 41.6 36.1902 42.1333 35.2593ZM29.8667 49.8427C28.8 48.6015 27.7333 47.0501 26.6667 45.4987C27.7333 45.4987 28.8 45.4987 29.8667 45.4987C30.9333 45.4987 32 45.4987 33.0667 45.4987C32 47.0501 30.9333 48.6015 29.8667 49.8427ZM20.8 41.465C19.2 41.1547 17.6 40.8444 16 40.5342C16.5333 38.6725 17.0667 37.121 17.6 35.2593C18.1333 36.1902 18.6667 37.4313 19.2 38.3622C19.7333 39.6033 20.2667 40.5342 20.8 41.465ZM17.8667 27.192C17.3333 25.3303 16.8 23.4685 16.2667 21.9171C17.8667 21.6068 19.4667 21.2966 21.0667 20.9863C20.5333 21.9171 20 23.1583 19.4667 24.0891C18.6667 25.02 18.1333 26.2611 17.8667 27.192ZM29.8667 12.6086C30.9333 13.8498 32 15.4012 33.0667 16.9526C32 16.9526 30.9333 16.9526 29.8667 16.9526C28.8 16.9526 27.7333 16.9526 26.6667 16.9526C27.7333 15.4012 28.8 13.8498 29.8667 12.6086ZM40.5333 24.0891C40 22.848 39.4667 21.9171 38.9333 20.9863C40.5333 21.2966 42.1333 21.6068 43.7333 21.9171C43.2 23.7788 42.6667 25.6405 42.1333 27.192C41.6 26.2611 41.0667 25.02 40.5333 24.0891ZM14.6667 14.4703C14.1333 9.1955 14.6667 5.16181 16.5333 3.92067C16.8 3.61039 17.3333 3.61039 17.8667 3.61039C20.2667 3.61039 24 5.78237 28 10.4366C26.4 12.6086 24.8 14.7806 23.2 17.2629C20.5333 17.5732 17.8667 18.1937 15.4667 18.8143C14.9333 17.2629 14.6667 15.7115 14.6667 14.4703ZM9.86667 38.0519C5.6 35.8799 2.93333 33.3976 2.93333 30.9154C2.93333 28.7434 5.6 25.9508 9.86667 23.7788C10.9333 23.1583 12 22.848 13.3333 22.5377C14.1333 25.3303 14.9333 28.1228 16 30.9154C14.9333 33.7079 13.8667 36.5005 13.3333 39.293C12 39.293 10.9333 38.6725 9.86667 38.0519ZM16.5333 58.5306C14.9333 57.2895 14.1333 53.2558 14.6667 47.981C14.9333 46.7398 14.9333 45.1884 15.4667 43.637C17.8667 44.2576 20.2667 44.8781 22.9333 45.1884C24.5333 47.6707 26.1333 50.153 28 52.3249C24 56.6689 20.2667 59.1512 17.8667 59.1512C17.3333 58.8409 16.8 58.8409 16.5333 58.5306ZM45.3333 47.981C45.8667 53.2558 45.3333 57.2895 43.4667 58.5306C43.2 58.8409 42.6667 58.8409 42.1333 58.8409C39.7333 58.8409 36 56.6689 32 52.0147C33.6 49.8427 35.4667 47.6707 37.0667 44.8781C39.7333 44.5678 42.4 44.2576 44.5333 43.3267C44.8 45.1884 45.0667 46.7398 45.3333 47.981ZM50.1333 38.0519C49.0667 38.6725 48 38.9827 46.6667 39.6033C45.8667 36.8108 45.0667 34.0182 44 31.2256C45.0667 28.4331 46.1333 25.3303 46.6667 22.848C48 23.1583 49.0667 23.7788 50.1333 24.0891C54.4 26.2611 57.0667 28.7434 57.0667 31.2256C57.0667 33.3976 54.4 36.1902 50.1333 38.0519Z" fill="#626072"/>
<path d="M30.1332 37.7409C33.3332 37.7409 35.7332 34.9483 35.7332 31.2249C35.7332 27.5015 33.3332 24.709 30.1332 24.709C26.9332 24.709 24.5332 27.5015 24.5332 31.2249C24.5332 34.9483 26.9332 37.7409 30.1332 37.7409Z" fill="#626072"/>
</svg>
