<svg width="60" height="48" viewBox="0 0 60 48" fill="none" xmlns="http://www.w3.org/2000/svg">
<path d="M28.2954 35.9544C28.2672 36.0129 28.2391 36.0596 28.2954 35.9544ZM51.6481 27.4772C49.762 27.4772 47.9022 27.9254 46.2111 28.7926C45.658 27.6331 45.0862 26.6197 44.9925 25.8597C44.88 24.973 44.7581 24.4469 44.8894 23.3945C45.0206 22.3422 45.6112 20.8514 45.6018 20.7442C45.5924 20.637 45.4705 20.1011 44.2613 20.0913C43.052 20.0816 42.0115 20.3349 41.8896 20.6662C41.6759 21.2723 41.5091 21.894 41.3928 22.5273C41.1772 23.6674 38.9762 27.7403 37.7294 29.8645C37.317 29.0362 36.9701 28.3054 36.8951 27.7208C36.7826 26.8341 36.6608 26.3079 36.792 25.2556C36.9233 24.2033 37.5138 22.7124 37.5045 22.6053C37.4951 22.4981 37.3732 21.9622 36.1658 21.9524C34.9585 21.9427 33.9161 22.196 33.7942 22.5273C33.6723 22.8586 33.5411 23.6381 33.2974 24.3884C33.0536 25.1387 30.1196 31.9204 29.3528 33.6841C28.959 34.5805 28.6216 35.3016 28.3778 35.7888C28.3404 35.8667 28.3122 35.9154 28.2935 35.9544C28.3216 35.9057 28.3404 35.857 28.3404 35.8764C28.1341 36.2954 28.0123 36.5293 28.0123 36.5293V36.539C27.8529 36.8508 27.6748 37.1334 27.5904 37.1334C27.5342 37.1334 27.4123 36.3149 27.6186 35.1944C28.0591 32.8364 29.0997 29.1726 29.0903 29.046C29.0809 28.9778 29.2871 28.3444 28.406 28.0034C27.5529 27.6818 27.2436 28.2177 27.1686 28.2177C27.0936 28.2177 27.0374 28.4126 27.0374 28.4126C27.0374 28.4126 27.9841 24.2812 25.2188 24.2812C23.494 24.2812 21.0942 26.2495 19.9149 28.0326C19.1744 28.4516 17.5714 29.3578 15.8841 30.3224C15.2373 30.6927 14.5717 31.0727 13.9436 31.4332C13.8968 31.3845 13.8593 31.3358 13.8124 31.2871C10.4565 27.5649 4.2621 24.9341 4.52457 19.9354C4.61831 18.1133 5.22763 13.3291 16.4372 7.52173C25.6237 2.76671 32.9674 4.07239 34.2329 6.97607C36.0515 11.1172 30.3052 18.8246 20.7661 19.9354C17.129 20.3544 15.2185 18.8928 14.7404 18.3472C14.2436 17.7723 14.1686 17.7431 13.9811 17.8502C13.6718 18.0256 13.8687 18.5323 13.9811 18.8344C14.2624 19.6041 15.4341 20.9683 17.4308 21.6504C19.1838 22.2447 23.4471 22.576 28.601 20.5006C34.3923 18.1815 38.9012 11.7213 37.5776 6.31348C36.2314 0.81793 27.4648 -0.98469 19.1763 2.07489C14.2361 3.897 8.89477 6.7617 5.05327 10.4936C0.488093 14.9368 -0.24121 18.8051 0.0587609 20.4226C1.12741 26.1618 8.73728 29.9034 11.782 32.6707C11.632 32.7584 11.4914 32.8364 11.3601 32.9143C9.83217 33.7036 4.0315 36.8606 2.57851 40.193C0.938049 43.9736 2.85036 46.6824 4.10461 47.0527C8.02298 48.183 12.0332 46.1465 14.1892 42.8044C16.3453 39.4622 16.0828 35.0969 15.0892 33.1092C15.0798 33.08 15.061 33.0605 15.0517 33.0312C15.4454 32.7876 15.8485 32.544 16.2515 32.3004C17.0296 31.823 17.7889 31.3845 18.4545 31.0045C18.0795 32.0568 17.8076 33.3235 17.667 35.1554C17.4983 37.2991 18.3513 40.0761 19.4575 41.1674C19.9449 41.6448 20.5336 41.6546 20.9011 41.6546C22.1947 41.6546 22.7759 40.5438 23.4227 39.2186C24.2195 37.6011 24.9226 35.7205 24.9226 35.7205C24.9226 35.7205 24.0414 40.8069 26.4505 40.8069C27.3317 40.8069 28.2129 39.6278 28.6066 39.0237V39.0335C28.6066 39.0335 28.6253 38.9945 28.6722 38.9165C28.7659 38.7704 28.8128 38.6827 28.8128 38.6827V38.6535C29.169 38.0201 29.9471 36.5683 31.1188 34.1713C32.6374 31.0727 34.0885 27.2044 34.0885 27.2044C34.2291 28.0541 34.4241 28.894 34.6697 29.7183C34.9322 30.644 35.4853 31.6573 35.9259 32.6415C35.5696 33.1482 35.354 33.4405 35.354 33.4405C35.354 33.4483 35.3578 33.4541 35.3634 33.46C35.0822 33.8497 34.7635 34.2687 34.4354 34.6779C33.2374 36.159 31.8106 37.8545 31.6232 38.3417C31.3982 38.9165 31.4544 39.3453 31.8856 39.6766C32.2043 39.9299 32.7668 39.9689 33.3574 39.9202C34.4354 39.8422 35.1947 39.5694 35.5603 39.394C36.2352 39.1426 36.8708 38.7957 37.4538 38.3611C38.6256 37.4647 39.338 36.1785 39.2724 34.4831C39.2349 33.5477 38.9443 32.6122 38.5881 31.7353C38.6912 31.5794 38.8037 31.4137 38.9068 31.2481C40.761 28.4321 42.1971 25.3414 42.1971 25.3414C42.3377 26.191 42.5308 27.0309 42.7783 27.8553C43.0033 28.6445 43.4439 29.5117 43.847 30.3595C42.1034 31.8308 41.0254 33.536 40.6523 34.6565C39.9586 36.732 40.5023 37.6674 41.5241 37.8817C41.9834 37.9792 42.6396 37.7551 43.127 37.5407C43.8507 37.2893 44.5331 36.9249 45.15 36.4591C46.3217 35.5627 47.456 34.3057 47.3791 32.6006C47.351 31.8308 47.1448 31.061 46.8729 30.3205C48.3446 29.6774 50.2569 29.3266 52.6942 29.6189C57.9137 30.2523 58.9355 33.6431 58.7386 35.056C58.5418 36.4689 57.445 37.2581 57.0794 37.492C56.7138 37.7258 56.6013 37.8135 56.6294 37.9889C56.6763 38.2423 56.845 38.2325 57.1544 38.1741C57.5856 38.0961 59.8916 37.0243 59.9947 34.4032C60.1447 31.0902 57.0794 27.446 51.6518 27.4753L51.6481 27.4772ZM11.4164 41.5766C9.69156 43.5351 7.27493 44.2757 6.2344 43.6521C5.11889 42.9778 5.55947 40.0956 7.68551 38.0084C8.97913 36.7417 10.6477 35.5724 11.7539 34.8514C12.007 34.6955 12.3726 34.4616 12.8225 34.1791C12.8975 34.1303 12.935 34.1109 12.935 34.1109C13.0194 34.0524 13.1131 34.0037 13.2068 33.9452C13.983 36.9074 13.235 39.5207 11.4164 41.5766ZM24.0114 32.6707C23.4115 34.2005 22.1478 38.0981 21.3773 37.8934C20.7211 37.718 20.318 34.7462 21.2461 31.823C21.7148 30.3517 22.7084 28.5978 23.299 27.9157C24.2458 26.8146 25.2863 26.4638 25.53 26.9023C25.8581 27.4772 24.3864 31.7158 24.0114 32.6707ZM34.4166 37.835C34.1635 37.9714 33.9292 38.0591 33.8167 37.9909C33.7323 37.9422 33.9198 37.757 33.9198 37.757C33.9198 37.757 35.2228 36.3052 35.7384 35.6426C36.0383 35.2528 36.3852 34.7949 36.7601 34.2882C36.7601 34.3369 36.7695 34.3856 36.7695 34.4441C36.7583 36.1883 35.1478 37.3673 34.4166 37.835ZM42.4408 35.9349C42.2534 35.7985 42.2815 35.3405 42.9095 33.9179C43.1533 33.3625 43.7157 32.4271 44.6906 31.5307C44.8012 31.8698 44.8612 32.2244 44.8687 32.583C44.8594 34.7754 43.3501 35.5939 42.4408 35.9349Z" fill="#626072"/>
</svg>
