<svg width="57" height="35" viewBox="0 0 57 35" fill="none" xmlns="http://www.w3.org/2000/svg">
<path d="M28.4999 0.75C21.0462 0.75 16.412 4.46292 14.5416 11.9167C17.3333 8.20375 20.5995 6.80792 24.3124 7.72917C26.4341 8.25958 27.9695 9.795 29.6445 11.4979C32.3803 14.2896 35.4791 17.5 42.4583 17.5C49.912 17.5 54.5462 13.7871 56.4166 6.33333C53.6249 10.0463 50.3587 11.4421 46.6458 10.5208C44.5241 9.99042 43.0166 8.455 41.3137 6.75208C38.5778 3.96042 35.4791 0.75 28.4999 0.75ZM14.5416 17.5C7.08784 17.5 2.45367 21.2129 0.583252 28.6667C3.37492 24.9538 6.64117 23.5579 10.3541 24.4792C12.4758 25.0096 13.9833 26.545 15.6862 28.2479C18.422 31.0396 21.5208 34.25 28.4999 34.25C35.9537 34.25 40.5878 30.5371 42.4583 23.0833C39.6666 26.7963 36.4003 28.1921 32.6874 27.2708C30.5658 26.7404 29.0583 25.205 27.3553 23.5021C24.6195 20.7104 21.5208 17.5 14.5416 17.5Z" fill="#626072"/>
</svg>
