<svg width="60" height="61" viewBox="0 0 60 61" fill="none" xmlns="http://www.w3.org/2000/svg">
<path d="M0 30.2432V60.2432H60V0.243164H0V30.2432ZM48.3487 27.8507C49.8731 28.2313 51.0338 28.9157 52.1081 30.0182C52.6556 30.6032 53.475 31.6775 53.5444 31.9419C53.5631 32.0207 50.9569 33.7682 49.3744 34.745C49.3163 34.7844 49.0819 34.5407 48.8269 34.1582C48.0563 33.035 47.2444 32.5475 46.005 32.4594C44.1881 32.3413 43.0163 33.29 43.0256 34.8819C43.0163 35.2719 43.1044 35.6638 43.2788 36.005C43.68 36.8357 44.4319 37.3325 46.755 38.3394C51.0525 40.1844 52.8881 41.405 54.03 43.1338C55.3087 45.0669 55.5919 48.1532 54.7331 50.4575C53.7769 52.9475 51.4125 54.6463 48.0919 55.2032C47.0663 55.3888 44.625 55.3588 43.5206 55.1544C41.1094 54.725 38.8237 53.5325 37.4175 51.9707C36.8606 51.365 35.7862 49.7732 35.8556 49.6663C35.8856 49.6269 36.1294 49.4713 36.4031 49.3138C36.6769 49.1563 37.6819 48.5713 38.6306 48.0238L40.3594 47.0188L40.7213 47.555C41.2294 48.3257 42.3319 49.3813 42.9975 49.7319C44.9119 50.7482 47.5388 50.6019 48.8381 49.4394C49.365 49.0007 49.6594 48.3257 49.62 47.6432C49.62 46.9494 49.5319 46.6382 49.17 46.1188C48.7013 45.455 47.7544 44.8888 45.0487 43.7169C41.9531 42.3782 40.6144 41.5588 39.405 40.2407C38.6438 39.3707 38.0775 38.3469 37.755 37.2425C37.53 36.3932 37.4719 34.2632 37.6481 33.4138C38.2838 30.4157 40.5488 28.3363 43.8 27.7213C44.8556 27.5169 47.3156 27.5938 48.3506 27.8488L48.3487 27.8507ZM34.2675 30.3613L34.2862 32.8119H26.4731V55.01H20.9456V32.8119H13.1438V30.41C13.1438 29.0713 13.1738 27.9594 13.2113 27.9294C13.2413 27.89 17.9869 27.8713 23.7488 27.8807L34.2375 27.9107L34.2675 30.3613Z" fill="#626072"/>
</svg>
