<svg width="60" height="61" viewBox="0 0 60 61" fill="none" xmlns="http://www.w3.org/2000/svg">
<path d="M5.87659 6.842L1.29285 6.07057H0.940255L0.646425 6.18925L0.411361 6.42662L0.235064 6.72332L0.117532 6.90134L0 7.19804V7.91013L0.117532 8.14749L28.8541 59.0024L29.3242 59.5958L29.7356 59.8925L30.0294 60.0112H30.4407L30.7346 59.9519L31.1459 59.8332L31.4985 59.5958L56.6503 14.1409L60 8.20683V7.55409V7.25738L59.8237 6.842L59.6474 6.5453L59.4123 6.30793L59.1773 6.12991L58.8834 6.01123H58.1783L52.5955 7.07936L45.6023 8.38486L43.428 8.7409L43.2517 8.91892L42.9579 9.98705L41.9001 13.6068L47.0715 12.5387H48.0118L48.3643 12.6574L48.7757 12.8947L49.1871 13.3695L49.4221 13.8442L49.5397 14.2002V15.031L31.7924 50.5761L31.2047 51.1101L30.7933 51.2882H29.7356L29.4417 51.1101L29.0304 50.9321L28.619 50.5761L28.3252 50.1607L28.2076 49.6266V49.0332L30.7933 36.275L27.9138 37.1651H27.0323L26.5622 36.9871L26.2096 36.7497L25.857 36.453L25.6219 36.0969L25.4456 35.6816V34.9101L27.0323 26.8991L21.9197 28.1453H20.9207L20.333 27.7893L19.6866 27.1365L19.4515 26.5431L20.333 9.39365L5.87659 6.842Z" fill="#626072"/>
<path d="M29.7302 49.7181L29.6146 49.4837V48.8975L32.2163 36.4122L32.3319 36.0605V35.5329L32.2163 35.3571L32.1006 35.2398L31.985 35.1226L31.7537 35.0054H31.4069L28.3426 35.9432L27.9957 36.0605L27.8223 36.1191H27.3597L27.2441 36.0605L27.1285 35.9432L27.0128 35.826L26.8972 35.7088L26.8394 35.5915V35.3571L28.4582 26.9749V26.2715L28.2848 26.037L28.1113 25.8612H27.4754L22.6188 27.0335L22.2719 27.1507L22.0407 27.2094H21.4625L21.3469 27.1507L21.2313 27.0335L21.1156 26.9163L21.0578 26.799L21 26.5646L22.2141 5.57981L22.2719 4.99365L22.3298 4.52471L22.3876 4.40748L22.5032 4.29025L22.6767 4.17301L22.9657 4.05578L42.97 0.0698471L43.3169 0.0112305H43.7216L43.8951 0.0698471L44.1263 0.304314L44.2998 0.597397V0.949097L44.1842 1.24218L40.4839 14.1965V15.0171L40.5996 15.1929L40.8308 15.4274H41.3512L46.6702 14.3723L47.0171 14.3137H47.5375L47.7109 14.3723L47.8266 14.4895L48 14.6654V15.3688L31.1756 49.3078L30.8865 49.7768L30.6552 50.0112H30.4818H30.1927L29.9615 49.9526L29.7302 49.7181Z" fill="#626072"/>
</svg>
